<svg width="1145" height="1144" xmlns="http://www.w3.org/2000/svg" xmlns:xlink="http://www.w3.org/1999/xlink" xml:space="preserve" overflow="hidden"><g transform="translate(-1341 -148)"><g><g><g><g><path d="M2271.5 243.333 1556.5 243.333 1556.5 1196.67 2271.5 1196.67ZM2247.67 1172.83 1580.33 1172.83 1580.33 267.167 2247.67 267.167Z" fill="#000000" fill-rule="nonzero" fill-opacity="1"/><path d="M1675.67 422.083 2152.33 422.083 2152.33 445.917 1675.67 445.917Z" fill="#000000" fill-rule="nonzero" fill-opacity="1"/><path d="M1675.67 517.417 2152.33 517.417 2152.33 541.25 1675.67 541.25Z" fill="#000000" fill-rule="nonzero" fill-opacity="1"/><path d="M1675.67 612.75 2152.33 612.75 2152.33 636.583 1675.67 636.583Z" fill="#000000" fill-rule="nonzero" fill-opacity="1"/><path d="M1914 708.083 2152.33 708.083 2152.33 731.917 1914 731.917Z" fill="#000000" fill-rule="nonzero" fill-opacity="1"/><path d="M1675.67 946.417 1914 946.417 1914 970.25 1675.67 970.25Z" fill="#000000" fill-rule="nonzero" fill-opacity="1"/><path d="M2011.8 878.408 2071.9 938.504 2131.99 878.408 2148.84 895.258 2088.75 955.354 2148.84 1015.45 2131.99 1032.3 2071.9 972.204 2011.8 1032.3 1994.95 1015.45 2055.05 955.354 1994.95 895.258 2011.8 878.408Z" fill="#000000" fill-rule="nonzero" fill-opacity="1"/></g></g></g></g></g></svg>